<svg xmlns="http://www.w3.org/2000/svg" viewBox="0 0 64 64">
  <path fill="#16a34a" d="M61 14H15v4h-4v4H7v4H3v24h46v-4h4v-4h4v-4h4ZM47 48H5V28h42v20Zm4-4h-2V26H9v-2h42v20Zm4-4h-2V22H13v-2h42v20Zm4-4h-2V18H17v-2h42Zm-33-4a6 6 0 1 0 6 6 6 6 0 0 0-6-6Zm0 10a4 4 0 1 1 4-4 4 4 0 0 1-4 4Zm-12-7a3 3 0 1 0 3 3 3 3 0 0 0-3-3Zm0 4a1 1 0 1 1 1-1 1 1 0 0 1-1 1Zm24-4a3 3 0 1 0 3 3 3 3 0 0 0-3-3Zm0 4a1 1 0 1 1 1-1 1 1 0 0 1-1 1Zm3-9v-1H11v1a4 4 0 0 1-4 4H6v8h1a4 4 0 0 1 4 4v1h30v-1a4 4 0 0 1 4-4h1v-8h-1a4 4 0 0 1-4-4Zm3 10.08A6 6 0 0 0 39.08 45H12.92A6 6 0 0 0 8 40.08v-4.16A6 6 0 0 0 12.92 31h26.16A6 6 0 0 0 44 35.92Z"></path>
</svg>