<svg xmlns="http://www.w3.org/2000/svg" width="20" height="20" viewBox="0 0 20 20" fill="none">
<path d="M19.3204 11.0109C18.2187 11.0109 17.1169 11.0109 16.0151 11.0109C15.8912 11.0109 15.8499 10.9833 15.8636 10.8591C15.8774 10.597 15.8636 10.3348 15.8636 10.0864C15.8774 9.78289 15.8361 9.46554 15.8774 9.16199C15.9325 9.1206 15.9876 9.14819 16.0565 9.14819C17.1444 9.14819 18.2462 9.14819 19.3342 9.14819C19.4031 9.14819 19.4582 9.1482 19.527 9.1344C19.4857 8.80325 19.4444 8.4721 19.3893 8.14095C19.1965 7.17511 18.866 6.25065 18.3977 5.38139C17.7917 4.27757 17.0205 3.31172 16.0565 2.51145C14.8445 1.51801 13.4811 0.841914 11.9386 0.510767C10.7267 0.248608 9.50094 0.221012 8.289 0.427979C6.04415 0.828115 4.1436 1.87675 2.65621 3.61527C0.549082 6.08508 -0.180838 8.95502 0.46645 12.1423C1.00356 14.7639 2.43586 16.806 4.66694 18.2823C5.87888 19.0964 7.22855 19.5793 8.67462 19.7725C8.71593 19.7725 8.77102 19.7725 8.81234 19.7863C8.82611 19.7863 8.82611 19.8001 8.83988 19.8001C8.8812 19.8001 8.92251 19.8001 8.9776 19.8001C9.03269 19.8001 9.10155 19.8001 9.15664 19.8139C9.17041 19.8139 9.17041 19.8139 9.18418 19.8277C9.28059 19.8277 9.37699 19.8415 9.4734 19.8415C9.77638 19.8415 10.0931 19.8415 10.3961 19.8415C10.4788 19.8415 10.5752 19.8415 10.6578 19.8277C10.6716 19.8277 10.6716 19.8139 10.6853 19.8139C10.6853 19.8139 10.6853 19.8139 10.6991 19.8139C10.7542 19.8001 10.8093 19.8001 10.8644 19.8001C11.1398 19.7587 11.429 19.7311 11.7045 19.6759C12.7787 19.469 13.7841 19.0964 14.7343 18.5445C15.3679 18.172 15.9601 17.7442 16.4972 17.2337C17.1031 16.668 17.6265 16.0333 18.081 15.3296C18.5905 14.5293 18.9761 13.6601 19.2378 12.7494C19.3755 12.2389 19.4857 11.7284 19.5408 11.2179C19.527 11.0109 19.5408 11.0109 19.3204 11.0109ZM13.9631 12.4735C13.729 13.2737 13.3571 13.9912 12.7925 14.6121C11.9937 15.4952 11.0021 15.9229 9.83147 16.0195C9.03269 16.0885 8.23391 16.0333 7.47644 15.7435C6.59503 15.4124 5.96151 14.7777 5.41063 14.0464C4.84597 13.2875 4.5843 12.4183 4.37772 11.5214C4.12983 10.4176 4.10228 9.32757 4.40527 8.23754C4.74957 6.99574 5.43818 5.9609 6.53994 5.25721C7.22855 4.81568 8.45426 4.49833 9.36322 4.49833C10.7404 4.48453 11.7182 5.14683 12.4344 6.27825C12.6961 6.67839 12.9026 7.10612 13.0128 7.58904C13.0955 7.97538 13.0266 8.11336 12.641 8.20994C12.159 8.33412 11.9386 8.38931 11.4566 8.4583C9.79015 8.73426 7.86206 8.99642 6.19564 9.25858C6.11301 9.27237 6.05792 9.29997 6.07169 9.39655C6.15432 10.9695 6.52617 12.4183 7.73811 13.5359C9.15664 14.8605 11.126 14.5707 12.3104 13.5773C12.7787 13.191 13.123 12.7218 13.3296 12.1423C13.3847 11.9905 13.4811 11.9491 13.6463 12.0043C13.6739 12.0181 13.7152 12.0319 13.7427 12.0319C14.0182 12.1423 14.0457 12.1699 13.9631 12.4735Z" fill="#60BB46"/>
<path d="M13.7285 12.0319C13.7009 12.0181 13.6734 12.0043 13.6321 12.0043C13.4668 11.9491 13.3704 11.9905 13.3153 12.1422C13.1087 12.7218 12.7644 13.1909 12.2962 13.5772C11.1118 14.5707 9.15614 14.8604 7.72385 13.5358C6.5119 12.4182 6.14006 10.9556 6.05743 9.39648C6.05743 9.2999 6.09874 9.2723 6.18138 9.2585C7.8478 8.99634 9.77589 8.73418 11.4423 8.45823C11.9243 8.37544 12.1447 8.33405 12.6267 8.20987C13.0123 8.11328 13.0812 7.96151 12.9986 7.58897C12.8884 7.11984 12.6818 6.69211 12.4201 6.27817C11.704 5.14675 10.7262 4.48446 9.34896 4.49826C8.44 4.49826 7.22805 4.81561 6.52568 5.25714C5.42391 5.96083 4.73531 6.98186 4.391 8.23746C4.10179 9.32749 4.11556 10.4175 4.36346 11.5213C4.57004 12.432 4.83171 13.3013 5.39637 14.0463C5.94725 14.7776 6.58076 15.4123 7.46218 15.7435C8.21964 16.0332 9.01843 16.0746 9.81721 16.0194C10.9878 15.9366 11.9794 15.4951 12.7782 14.612C13.3429 13.9911 13.7147 13.2737 13.9488 12.4734C14.0452 12.1698 14.0177 12.1422 13.7285 12.0319ZM6.33287 8.32025C6.4155 7.76834 6.51191 7.23022 6.78735 6.7335C7.15919 6.04361 7.71008 5.56069 8.49509 5.40891C9.45913 5.21575 10.2028 5.60208 10.6573 6.55413C10.7813 6.81629 10.8777 7.10604 10.919 7.382C10.919 7.54757 10.8363 7.61656 10.7262 7.68555C10.5471 7.79593 10.3405 7.82353 10.1477 7.85112C8.92202 8.04429 7.71008 8.23746 6.48436 8.44443C6.34664 8.47203 6.3191 8.45823 6.33287 8.32025Z" fill="white"/>
<path d="M10.9203 7.39657C10.9203 7.56214 10.8377 7.63113 10.7275 7.70012C10.5485 7.8105 10.3419 7.8381 10.1491 7.86569C8.92338 8.05886 7.71144 8.25203 6.48572 8.459C6.36177 8.47279 6.32046 8.459 6.348 8.32102C6.43063 7.76911 6.52704 7.23099 6.80248 6.73427C7.17433 6.04438 7.72521 5.56146 8.51022 5.40968C9.47427 5.21652 10.218 5.60285 10.6724 6.5549C10.7826 6.84466 10.8652 7.12061 10.9203 7.39657Z" fill="#60BB46"/>
</svg>