<svg width="44" height="44" viewBox="0 0 44 44" fill="none" xmlns="http://www.w3.org/2000/svg">
<g clip-path="url(#clip0_2_107)">
<path d="M22 38.5C31.1127 38.5 38.5 31.1127 38.5 22C38.5 12.8873 31.1127 5.5 22 5.5C12.8873 5.5 5.5 12.8873 5.5 22C5.5 31.1127 12.8873 38.5 22 38.5Z" stroke="#334155" stroke-width="2.75" stroke-linecap="round" stroke-linejoin="round"/>
<path d="M16.5 16.5H16.5183" stroke="#334155" stroke-width="2.75" stroke-linecap="round" stroke-linejoin="round"/>
<path d="M27.5 16.5H27.5183" stroke="#334155" stroke-width="2.75" stroke-linecap="round" stroke-linejoin="round"/>
<path d="M29.3334 23.8333H14.6667M14.6667 23.8333C14.6667 25.7783 15.4393 27.6435 16.8146 29.0188C18.1898 30.3941 20.0551 31.1667 22 31.1667C23.9449 31.1667 25.8102 30.3941 27.1855 29.0188C28.5607 27.6435 29.3334 25.7783 29.3334 23.8333H14.6667Z" stroke="#334155" stroke-width="2.75" stroke-linecap="round" stroke-linejoin="round"/>
</g>
<defs>
<clipPath id="clip0_2_107">
<rect width="44" height="44" fill="white"/>
</clipPath>
</defs>
</svg>
