<svg width="44" height="44" viewBox="0 0 44 44" fill="none" xmlns="http://www.w3.org/2000/svg">
<g clip-path="url(#clip0_2_89)">
<path d="M22 38.5C31.1127 38.5 38.5 31.1127 38.5 22C38.5 12.8873 31.1127 5.5 22 5.5C12.8873 5.5 5.5 12.8873 5.5 22C5.5 31.1127 12.8873 38.5 22 38.5Z" stroke="#334155" stroke-width="2.75" stroke-linecap="round" stroke-linejoin="round"/>
<path d="M16.5 18.3333H16.5183" stroke="#334155" stroke-width="2.75" stroke-linecap="round" stroke-linejoin="round"/>
<path d="M27.5 18.3333H27.5183" stroke="#334155" stroke-width="2.75" stroke-linecap="round" stroke-linejoin="round"/>
<path d="M17.4167 27.9583C18.0141 27.3486 18.7272 26.8642 19.5142 26.5335C20.3012 26.2028 21.1463 26.0324 22 26.0324C22.8537 26.0324 23.6987 26.2028 24.4858 26.5335C25.2728 26.8642 25.9859 27.3486 26.5833 27.9583" stroke="#334155" stroke-width="2.75" stroke-linecap="round" stroke-linejoin="round"/>
</g>
<defs>
<clipPath id="clip0_2_89">
<rect width="44" height="44" fill="white"/>
</clipPath>
</defs>
</svg>
