<svg width="44" height="44" viewBox="0 0 44 44" fill="none" xmlns="http://www.w3.org/2000/svg">
<g clip-path="url(#clip0_2_33)">
<path d="M16.5 18.3333H16.5183" stroke="#334155" stroke-width="2.75" stroke-linecap="round" stroke-linejoin="round"/>
<path d="M27.5 18.3333H27.5183" stroke="#334155" stroke-width="2.75" stroke-linecap="round" stroke-linejoin="round"/>
<path d="M17.4167 27.9583C18.0141 27.3486 18.7272 26.8642 19.5142 26.5335C20.3012 26.2028 21.1463 26.0324 22 26.0324C22.8537 26.0324 23.6988 26.2028 24.4858 26.5335C25.2728 26.8642 25.9859 27.3486 26.5833 27.9583" stroke="#334155" stroke-width="2.75" stroke-linecap="round" stroke-linejoin="round"/>
<path d="M32.2043 32.2777C31.7043 32.7922 31.3661 33.4422 31.2318 34.147C31.0976 34.8519 31.173 35.5806 31.4489 36.243C31.7248 36.9053 32.1889 37.4722 32.7838 37.8733C33.3788 38.2745 34.0783 38.4922 34.7958 38.4997C35.5132 38.5071 36.2171 38.3039 36.8202 37.9151C37.4233 37.5264 37.8991 36.9693 38.1886 36.3128C38.4782 35.6562 38.5687 34.9292 38.4491 34.2217C38.3294 33.5143 38.0048 32.8575 37.5155 32.3327L34.8333 29.3333L32.2043 32.2777V32.2777Z" stroke="#334155" stroke-width="2.75" stroke-linecap="round" stroke-linejoin="round"/>
<path d="M38.2525 24.7812C38.414 23.8629 38.4968 22.9324 38.5 22C38.5 18.7366 37.5323 15.5465 35.7193 12.8331C33.9062 10.1197 31.3293 8.00484 28.3143 6.756C25.2993 5.50715 21.9817 5.18039 18.781 5.81705C15.5803 6.45371 12.6403 8.02518 10.3327 10.3327C8.02518 12.6403 6.45371 15.5803 5.81705 18.781C5.18039 21.9817 5.50715 25.2993 6.756 28.3143C8.00484 31.3293 10.1197 33.9062 12.8331 35.7193C15.5465 37.5323 18.7366 38.5 22 38.5C23.265 38.5 24.4933 38.3607 25.6667 38.093" stroke="#334155" stroke-width="2.75" stroke-linecap="round" stroke-linejoin="round"/>
</g>
<defs>
<clipPath id="clip0_2_33">
<rect width="44" height="44" fill="white"/>
</clipPath>
</defs>
</svg>
